<mxfile host="Electron" agent="Mozilla/5.0 (X11; Linux x86_64) AppleWebKit/537.36 (KHTML, like Gecko) draw.io/26.2.15 Chrome/134.0.6998.205 Electron/35.2.2 Safari/537.36" version="26.2.15">
  <diagram name="Page-1" id="E6LP1GYQQ5bRhDYcHJ73">
    <mxGraphModel dx="757" dy="1197" grid="1" gridSize="10" guides="1" tooltips="1" connect="1" arrows="1" fold="1" page="1" pageScale="1" pageWidth="583" pageHeight="827" math="0" shadow="0">
      <root>
        <mxCell id="0" />
        <mxCell id="1" parent="0" />
        <mxCell id="iwouGw_yoDt3OT6vbim0-1" value="NO_TRAIN" style="swimlane;fontStyle=0;childLayout=stackLayout;horizontal=1;startSize=26;fillColor=none;horizontalStack=0;resizeParent=1;resizeParentMax=0;resizeLast=0;collapsible=1;marginBottom=0;whiteSpace=wrap;html=1;" parent="1" vertex="1">
          <mxGeometry x="375" y="20" width="190" height="104" as="geometry" />
        </mxCell>
        <mxCell id="iwouGw_yoDt3OT6vbim0-2" value="entry/ train_Passed_False,&lt;div&gt;&lt;br&gt;&lt;/div&gt;" style="text;strokeColor=none;fillColor=none;align=left;verticalAlign=top;spacingLeft=4;spacingRight=4;overflow=hidden;rotatable=0;points=[[0,0.5],[1,0.5]];portConstraint=eastwest;whiteSpace=wrap;html=1;" parent="iwouGw_yoDt3OT6vbim0-1" vertex="1">
          <mxGeometry y="26" width="190" height="26" as="geometry" />
        </mxCell>
        <mxCell id="iwouGw_yoDt3OT6vbim0-3" value="do/ &amp;lt;nothing&amp;gt;" style="text;strokeColor=none;fillColor=none;align=left;verticalAlign=top;spacingLeft=4;spacingRight=4;overflow=hidden;rotatable=0;points=[[0,0.5],[1,0.5]];portConstraint=eastwest;whiteSpace=wrap;html=1;" parent="iwouGw_yoDt3OT6vbim0-1" vertex="1">
          <mxGeometry y="52" width="190" height="26" as="geometry" />
        </mxCell>
        <mxCell id="iwouGw_yoDt3OT6vbim0-4" value="exit/ &amp;lt;nothing&amp;gt;" style="text;strokeColor=none;fillColor=none;align=left;verticalAlign=top;spacingLeft=4;spacingRight=4;overflow=hidden;rotatable=0;points=[[0,0.5],[1,0.5]];portConstraint=eastwest;whiteSpace=wrap;html=1;" parent="iwouGw_yoDt3OT6vbim0-1" vertex="1">
          <mxGeometry y="78" width="190" height="26" as="geometry" />
        </mxCell>
        <mxCell id="iwouGw_yoDt3OT6vbim0-5" value="TRAIN_WEST_DETECTED" style="swimlane;fontStyle=0;childLayout=stackLayout;horizontal=1;startSize=26;fillColor=none;horizontalStack=0;resizeParent=1;resizeParentMax=0;resizeLast=0;collapsible=1;marginBottom=0;whiteSpace=wrap;html=1;" parent="1" vertex="1">
          <mxGeometry x="190" y="270" width="260" height="112" as="geometry" />
        </mxCell>
        <mxCell id="iwouGw_yoDt3OT6vbim0-6" value="entry/ Traffic_State = TRAIN_APPROACHING" style="text;strokeColor=none;fillColor=none;align=left;verticalAlign=top;spacingLeft=4;spacingRight=4;overflow=hidden;rotatable=0;points=[[0,0.5],[1,0.5]];portConstraint=eastwest;whiteSpace=wrap;html=1;" parent="iwouGw_yoDt3OT6vbim0-5" vertex="1">
          <mxGeometry y="26" width="260" height="34" as="geometry" />
        </mxCell>
        <mxCell id="iwouGw_yoDt3OT6vbim0-7" value="do/ &amp;lt;nothing&amp;gt;" style="text;strokeColor=none;fillColor=none;align=left;verticalAlign=top;spacingLeft=4;spacingRight=4;overflow=hidden;rotatable=0;points=[[0,0.5],[1,0.5]];portConstraint=eastwest;whiteSpace=wrap;html=1;" parent="iwouGw_yoDt3OT6vbim0-5" vertex="1">
          <mxGeometry y="60" width="260" height="26" as="geometry" />
        </mxCell>
        <mxCell id="iwouGw_yoDt3OT6vbim0-8" value="exit/ &amp;lt;nothing&amp;gt;" style="text;strokeColor=none;fillColor=none;align=left;verticalAlign=top;spacingLeft=4;spacingRight=4;overflow=hidden;rotatable=0;points=[[0,0.5],[1,0.5]];portConstraint=eastwest;whiteSpace=wrap;html=1;" parent="iwouGw_yoDt3OT6vbim0-5" vertex="1">
          <mxGeometry y="86" width="260" height="26" as="geometry" />
        </mxCell>
        <mxCell id="iwouGw_yoDt3OT6vbim0-9" value="TRAIN_PASSED_DETECTION" style="swimlane;fontStyle=0;childLayout=stackLayout;horizontal=1;startSize=26;fillColor=none;horizontalStack=0;resizeParent=1;resizeParentMax=0;resizeLast=0;collapsible=1;marginBottom=0;whiteSpace=wrap;html=1;" parent="1" vertex="1">
          <mxGeometry x="360" y="470" width="220" height="104" as="geometry" />
        </mxCell>
        <mxCell id="iwouGw_yoDt3OT6vbim0-10" value="entry/ &amp;lt;nothing&amp;gt;" style="text;strokeColor=none;fillColor=none;align=left;verticalAlign=top;spacingLeft=4;spacingRight=4;overflow=hidden;rotatable=0;points=[[0,0.5],[1,0.5]];portConstraint=eastwest;whiteSpace=wrap;html=1;" parent="iwouGw_yoDt3OT6vbim0-9" vertex="1">
          <mxGeometry y="26" width="220" height="26" as="geometry" />
        </mxCell>
        <mxCell id="iwouGw_yoDt3OT6vbim0-11" value="do/ &amp;lt;nothing&amp;gt;" style="text;strokeColor=none;fillColor=none;align=left;verticalAlign=top;spacingLeft=4;spacingRight=4;overflow=hidden;rotatable=0;points=[[0,0.5],[1,0.5]];portConstraint=eastwest;whiteSpace=wrap;html=1;" parent="iwouGw_yoDt3OT6vbim0-9" vertex="1">
          <mxGeometry y="52" width="220" height="26" as="geometry" />
        </mxCell>
        <mxCell id="iwouGw_yoDt3OT6vbim0-12" value="exit/ &amp;lt;nothing&amp;gt;" style="text;strokeColor=none;fillColor=none;align=left;verticalAlign=top;spacingLeft=4;spacingRight=4;overflow=hidden;rotatable=0;points=[[0,0.5],[1,0.5]];portConstraint=eastwest;whiteSpace=wrap;html=1;" parent="iwouGw_yoDt3OT6vbim0-9" vertex="1">
          <mxGeometry y="78" width="220" height="26" as="geometry" />
        </mxCell>
        <mxCell id="iwouGw_yoDt3OT6vbim0-13" value="TRAIN_EAST_DETECTED" style="swimlane;fontStyle=0;childLayout=stackLayout;horizontal=1;startSize=26;fillColor=none;horizontalStack=0;resizeParent=1;resizeParentMax=0;resizeLast=0;collapsible=1;marginBottom=0;whiteSpace=wrap;html=1;" parent="1" vertex="1">
          <mxGeometry x="490" y="270" width="260" height="104" as="geometry" />
        </mxCell>
        <mxCell id="iwouGw_yoDt3OT6vbim0-14" value="entry/ Traffic_State = TRAIN_APPROACHING" style="text;strokeColor=none;fillColor=none;align=left;verticalAlign=top;spacingLeft=4;spacingRight=4;overflow=hidden;rotatable=0;points=[[0,0.5],[1,0.5]];portConstraint=eastwest;whiteSpace=wrap;html=1;" parent="iwouGw_yoDt3OT6vbim0-13" vertex="1">
          <mxGeometry y="26" width="260" height="26" as="geometry" />
        </mxCell>
        <mxCell id="iwouGw_yoDt3OT6vbim0-15" value="do/ &amp;lt;nothing&amp;gt;" style="text;strokeColor=none;fillColor=none;align=left;verticalAlign=top;spacingLeft=4;spacingRight=4;overflow=hidden;rotatable=0;points=[[0,0.5],[1,0.5]];portConstraint=eastwest;whiteSpace=wrap;html=1;" parent="iwouGw_yoDt3OT6vbim0-13" vertex="1">
          <mxGeometry y="52" width="260" height="26" as="geometry" />
        </mxCell>
        <mxCell id="iwouGw_yoDt3OT6vbim0-16" value="exit/ &amp;lt;nothing&amp;gt;" style="text;strokeColor=none;fillColor=none;align=left;verticalAlign=top;spacingLeft=4;spacingRight=4;overflow=hidden;rotatable=0;points=[[0,0.5],[1,0.5]];portConstraint=eastwest;whiteSpace=wrap;html=1;" parent="iwouGw_yoDt3OT6vbim0-13" vertex="1">
          <mxGeometry y="78" width="260" height="26" as="geometry" />
        </mxCell>
        <mxCell id="iwouGw_yoDt3OT6vbim0-17" value="TrainDetectionPhase" style="html=1;verticalAlign=bottom;startArrow=circle;startFill=1;endArrow=open;startSize=6;endSize=8;curved=0;rounded=0;" parent="1" target="iwouGw_yoDt3OT6vbim0-1" edge="1">
          <mxGeometry width="80" relative="1" as="geometry">
            <mxPoint x="220" y="70" as="sourcePoint" />
            <mxPoint x="150" y="77.35270270270271" as="targetPoint" />
          </mxGeometry>
        </mxCell>
        <mxCell id="iwouGw_yoDt3OT6vbim0-18" value="" style="endArrow=open;endFill=1;endSize=12;html=1;rounded=0;" parent="1" source="iwouGw_yoDt3OT6vbim0-1" target="iwouGw_yoDt3OT6vbim0-5" edge="1">
          <mxGeometry width="160" relative="1" as="geometry">
            <mxPoint x="310" y="430" as="sourcePoint" />
            <mxPoint x="470" y="430" as="targetPoint" />
          </mxGeometry>
        </mxCell>
        <mxCell id="iwouGw_yoDt3OT6vbim0-24" value="readingWest == HIGH" style="edgeLabel;html=1;align=center;verticalAlign=middle;resizable=0;points=[];" parent="iwouGw_yoDt3OT6vbim0-18" vertex="1" connectable="0">
          <mxGeometry x="0.0034" y="-2" relative="1" as="geometry">
            <mxPoint y="-36" as="offset" />
          </mxGeometry>
        </mxCell>
        <mxCell id="iwouGw_yoDt3OT6vbim0-19" value="" style="endArrow=open;endFill=1;endSize=12;html=1;rounded=0;" parent="1" source="iwouGw_yoDt3OT6vbim0-1" target="iwouGw_yoDt3OT6vbim0-13" edge="1">
          <mxGeometry width="160" relative="1" as="geometry">
            <mxPoint x="310" y="430" as="sourcePoint" />
            <mxPoint x="470" y="430" as="targetPoint" />
          </mxGeometry>
        </mxCell>
        <mxCell id="iwouGw_yoDt3OT6vbim0-25" value="readingEast == HIGH" style="edgeLabel;html=1;align=center;verticalAlign=middle;resizable=0;points=[];" parent="iwouGw_yoDt3OT6vbim0-19" vertex="1" connectable="0">
          <mxGeometry x="-0.1116" relative="1" as="geometry">
            <mxPoint y="-29" as="offset" />
          </mxGeometry>
        </mxCell>
        <mxCell id="iwouGw_yoDt3OT6vbim0-20" value="" style="endArrow=open;endFill=1;endSize=12;html=1;rounded=0;" parent="1" source="iwouGw_yoDt3OT6vbim0-5" target="iwouGw_yoDt3OT6vbim0-9" edge="1">
          <mxGeometry width="160" relative="1" as="geometry">
            <mxPoint x="310" y="430" as="sourcePoint" />
            <mxPoint x="470" y="430" as="targetPoint" />
          </mxGeometry>
        </mxCell>
        <mxCell id="iwouGw_yoDt3OT6vbim0-27" value="readingWest == HIGH&lt;div&gt;AND&lt;/div&gt;&lt;div&gt;readingEast == HIGH&lt;/div&gt;" style="edgeLabel;html=1;align=center;verticalAlign=middle;resizable=0;points=[];" parent="iwouGw_yoDt3OT6vbim0-20" vertex="1" connectable="0">
          <mxGeometry x="-0.2649" y="-4" relative="1" as="geometry">
            <mxPoint as="offset" />
          </mxGeometry>
        </mxCell>
        <mxCell id="iwouGw_yoDt3OT6vbim0-21" value="" style="endArrow=open;endFill=1;endSize=12;html=1;rounded=0;" parent="1" source="iwouGw_yoDt3OT6vbim0-13" target="iwouGw_yoDt3OT6vbim0-9" edge="1">
          <mxGeometry width="160" relative="1" as="geometry">
            <mxPoint x="310" y="430" as="sourcePoint" />
            <mxPoint x="290" y="470" as="targetPoint" />
          </mxGeometry>
        </mxCell>
        <mxCell id="iwouGw_yoDt3OT6vbim0-26" value="readingEast == HIGH&lt;div&gt;AND&lt;/div&gt;&lt;div&gt;readingWest == HIGH&lt;/div&gt;" style="edgeLabel;html=1;align=center;verticalAlign=middle;resizable=0;points=[];" parent="iwouGw_yoDt3OT6vbim0-21" vertex="1" connectable="0">
          <mxGeometry x="-0.3017" y="3" relative="1" as="geometry">
            <mxPoint y="1" as="offset" />
          </mxGeometry>
        </mxCell>
        <mxCell id="iwouGw_yoDt3OT6vbim0-22" value="" style="endArrow=open;endFill=1;endSize=12;html=1;rounded=0;" parent="1" source="iwouGw_yoDt3OT6vbim0-9" target="iwouGw_yoDt3OT6vbim0-1" edge="1">
          <mxGeometry width="160" relative="1" as="geometry">
            <mxPoint x="310" y="430" as="sourcePoint" />
            <mxPoint x="470" y="430" as="targetPoint" />
          </mxGeometry>
        </mxCell>
        <mxCell id="iwouGw_yoDt3OT6vbim0-28" value="readingEast == LOW&lt;div&gt;AND&lt;br&gt;readinWest == LOW&lt;/div&gt;" style="edgeLabel;html=1;align=center;verticalAlign=middle;resizable=0;points=[];" parent="iwouGw_yoDt3OT6vbim0-22" vertex="1" connectable="0">
          <mxGeometry x="0.3642" y="3" relative="1" as="geometry">
            <mxPoint as="offset" />
          </mxGeometry>
        </mxCell>
      </root>
    </mxGraphModel>
  </diagram>
</mxfile>
